<svg xmlns="http://www.w3.org/2000/svg" width="256" height="256" fill="none" viewBox="0 0 1200 1200">
<rect width="1200" height="1200" fill="#9046FF" rx="260"/>
<mask id="mask0_1106_4856" width="655" height="796" x="272" y="202" maskUnits="userSpaceOnUse" style="mask-type:luminance">
<path fill="#fff" d="M926.578 202.793H272.637v795.064h653.941V202.793Z"/>
</mask>
<g mask="url(#mask0_1106_4856)">
<path fill="#fff" d="M398.554 818.914C316.315 1001.03 491.477 1046.74 620.672 940.156c38.015 119.504 180.38 30.317 231.562-62.361 112.553-204.228 67.084-412.438 55.406-455.421-80.003-292.931-480.017-293.428-548.84 1.491-16.149 51.679-16.398 110.315-25.342 171.186-4.472 30.809-7.951 50.437-19.628 82.734-6.957 18.639-16.15 35.034-31.057 62.86-22.858 43.236-13.169 126.468 105.097 83.238l11.181-4.969h-.497Z"/>
<path fill="#000" d="M636.123 549.353c-32.795 0-37.764-39.256-37.764-62.611 0-21.119 3.727-37.765 10.934-48.449 6.211-9.441 15.404-14.162 26.83-14.162 11.432 0 21.369 4.721 28.324 14.41 7.951 10.933 12.176 27.579 12.176 48.201 0 39.256-15.152 62.611-40.248 62.611h-.252Z"/>
<path fill="#000" d="M771.24 549.353c-32.795 0-37.763-39.256-37.763-62.611 0-21.119 3.726-37.765 10.933-48.449 6.211-9.441 15.404-14.162 26.83-14.162 11.432 0 21.369 4.721 28.324 14.41 7.952 10.933 12.176 27.579 12.176 48.201 0 39.256-15.152 62.611-40.248 62.611h-.252Z"/>
</g>
</svg>
