<svg xmlns="http://www.w3.org/2000/svg" width="256" height="256" fill="none" viewBox="0 0 256 256" id="upstash">
<style>
#upstash {
    rect.bg {fill: #242938}

    @media (prefers-color-scheme: light) {
        rect.bg {fill: #F4F2ED}
    }
}
</style>
<rect class="bg" width="256" height="256" fill="#242938" rx="60"/>
<g clip-path="url(#upstash_icon_auto)" transform="translate(53 28) scale(.423729)">
<path fill="#34D399" d="M.4219 412.975c78.105 78.104 204.738 78.104 282.843 0 78.104-78.105 78.104-204.738 0-282.843l-35.356 35.355c58.579 58.579 58.579 153.554 0 212.132-58.578 58.579-153.553 58.579-212.132 0L.4219 412.975Z"/>
<path fill="#34D399" d="M71.1328 342.264c39.0522 39.052 102.3682 39.052 141.4212 0 39.052-39.052 39.052-102.369 0-141.421l-35.355 35.355c19.526 19.526 19.526 51.184 0 70.711-19.527 19.526-51.185 19.526-70.711 0l-35.3552 35.355Z"/>
<path fill="#6EE7B7" d="M353.974 59.421C275.869-18.6835 149.236-18.6835 71.1315 59.421c-78.105 78.105-78.105 204.738 0 282.843l35.3545-35.355c-58.5775-58.579-58.5775-153.554 0-212.132 58.579-58.579 153.554-58.579 212.132 0l35.356-35.356Z"/>
<path fill="#6EE7B7" d="M283.264 130.132c-39.052-39.052-102.37-39.052-141.422 0-39.053 39.053-39.053 102.369 0 141.421l35.355-35.355c-19.526-19.526-19.526-51.184 0-70.711 19.526-19.526 51.184-19.526 70.711 0l35.356-35.355Z"/>
</g>
<defs>
<clipPath id="upstash_icon_auto">
<rect width="354" height="472" fill="#fff"/>
</clipPath>
</defs>
</svg>
